<svg width="145" height="49" viewBox="0 0 145 49" fill="none" xmlns="http://www.w3.org/2000/svg">
<path d="M26.28 12.44C26.28 13.9067 25.9067 15.3067 25.16 16.64C24.44 17.9733 23.4533 19.1467 22.2 20.16C20.9733 21.1467 19.52 21.9333 17.84 22.52C16.1867 23.1067 14.4267 23.4 12.56 23.4C11.8933 23.4 11.36 23.32 10.96 23.16C10.5867 22.9733 10.16 22.6267 9.68 22.12C8.34667 25.0267 7.25333 27.7067 6.4 30.16C5.57333 32.5867 4.92 34.9467 4.44 37.24C3.42667 37 2.6 36.5733 1.96 35.96C1.32 35.3733 0.733334 34.6267 0.2 33.72C0.466667 33.2133 0.786667 32.5467 1.16 31.72C1.53333 30.8933 1.98667 29.88 2.52 28.68C3.05333 27.4533 3.66667 26 4.36 24.32C5.08 22.6133 5.92 20.6267 6.88 18.36C7.30667 17.32 7.68 16.4133 8 15.64C8.32 14.8667 8.6 14.1467 8.84 13.48C9.08 12.7867 9.29333 12.1067 9.48 11.44C9.69333 10.7733 9.90667 10.04 10.12 9.24C8.86667 9.64 7.70667 10.1067 6.64 10.64C5.6 11.1733 4.73333 11.7333 4.04 12.32C3.8 12.16 3.54667 11.92 3.28 11.6C3.04 11.28 2.81333 10.9333 2.6 10.56C2.38667 10.16 2.2 9.76 2.04 9.36C1.88 8.96 1.78667 8.6 1.76 8.28C2.53333 7.74667 3.49333 7.25333 4.64 6.8C5.78667 6.34667 7.01333 5.96 8.32 5.64C9.62667 5.29333 10.9733 5.02666 12.36 4.84C13.7733 4.65333 15.12 4.56 16.4 4.56C17.92 4.56 19.2933 4.76 20.52 5.16C21.7467 5.53333 22.7867 6.06667 23.64 6.76C24.4933 7.45333 25.1467 8.28 25.6 9.24C26.0533 10.2 26.28 11.2667 26.28 12.44ZM19.16 7.64C18.1467 7.64 17.1067 7.72 16.04 7.88L16.52 8.6C16.2533 8.94666 15.92 9.46667 15.52 10.16C15.12 10.8533 14.68 11.6933 14.2 12.68C13.72 13.64 13.1867 14.72 12.6 15.92C12.04 17.12 11.44 18.3867 10.8 19.72C12.88 19.72 14.7733 19.5333 16.48 19.16C18.1867 18.76 19.64 18.2267 20.84 17.56C22.0667 16.8667 23.0133 16.0667 23.68 15.16C24.3733 14.2533 24.72 13.28 24.72 12.24C24.72 10.8533 24.2533 9.74667 23.32 8.92C22.3867 8.06667 21 7.64 19.16 7.64ZM34.9163 33.12C34.4096 32.6933 34.0629 32.16 33.8763 31.52C33.7163 30.88 33.6363 30.3333 33.6363 29.88C33.6363 29.32 33.7029 28.84 33.8363 28.44C33.7296 28.44 33.4896 28.6533 33.1163 29.08C32.7429 29.5067 32.3296 30.0133 31.8763 30.6C31.4496 31.1867 31.0229 31.76 30.5963 32.32C30.1696 32.88 29.8496 33.2933 29.6363 33.56C29.2896 33.9333 28.9563 34.2267 28.6363 34.44C28.3429 34.6533 28.1029 34.7733 27.9163 34.8C27.4896 34.7733 27.0363 34.68 26.5563 34.52C26.1029 34.3867 25.6629 34.1867 25.2363 33.92C24.8363 33.6533 24.4763 33.3333 24.1563 32.96C23.8629 32.5867 23.6629 32.16 23.5563 31.68C23.5563 30.9333 23.5696 30.32 23.5963 29.84C23.6496 29.36 23.7429 28.84 23.8763 28.28C24.1163 27.2667 24.4629 26.12 24.9163 24.84C25.3963 23.56 25.9429 22.3067 26.5563 21.08C27.1696 19.8267 27.8496 18.6667 28.5963 17.6C29.3696 16.5067 30.1829 15.6533 31.0363 15.04C31.2763 15.04 31.5563 15.0667 31.8763 15.12C32.1963 15.1467 32.5163 15.2133 32.8363 15.32C33.1829 15.4267 33.5029 15.56 33.7963 15.72C34.1163 15.8533 34.3829 16.04 34.5963 16.28C34.3563 16.5467 33.7429 17.44 32.7563 18.96C31.7963 20.48 30.7163 22.6667 29.5163 25.52C29.3829 25.8133 29.2229 26.24 29.0363 26.8C28.8496 27.36 28.6629 27.9467 28.4763 28.56C28.2896 29.1733 28.1296 29.7733 27.9963 30.36C27.8896 30.9467 27.8363 31.4133 27.8363 31.76C27.8363 31.9733 27.8629 32.1333 27.9163 32.24C27.9963 32.3467 28.0629 32.4267 28.1163 32.48C28.5163 32.32 29.0229 31.88 29.6363 31.16C30.2496 30.44 31.1029 29.3333 32.1963 27.84C32.4629 27.4667 32.7696 27.04 33.1163 26.56C33.4896 26.08 33.8629 25.5733 34.2363 25.04C34.6096 24.48 34.9563 23.9067 35.2763 23.32C35.6229 22.7333 35.9029 22.1467 36.1163 21.56C36.2229 21.24 36.3563 20.8667 36.5163 20.44C36.7029 19.9867 36.9163 19.52 37.1563 19.04C37.4229 18.56 37.7163 18.08 38.0363 17.6C38.3829 17.0933 38.7829 16.6267 39.2363 16.2C39.5829 16.2 39.9563 16.24 40.3562 16.32C40.7563 16.4 41.1296 16.5067 41.4763 16.64C41.8496 16.7467 42.1696 16.88 42.4363 17.04C42.7029 17.1733 42.9029 17.32 43.0363 17.48C42.5563 18.6533 42.0229 19.8133 41.4363 20.96C40.8496 22.1067 40.3029 23.24 39.7963 24.36C39.2896 25.4533 38.8629 26.5467 38.5163 27.64C38.1696 28.7333 37.9963 29.8 37.9963 30.84C37.9963 31.4 38.0363 31.8933 38.1163 32.32C38.2229 32.72 38.3296 33.0667 38.4363 33.36C38.5429 33.6267 38.6363 33.8533 38.7163 34.04C38.8229 34.2267 38.8763 34.3867 38.8763 34.52C38.8763 34.5467 38.8496 34.5867 38.7963 34.64C38.7696 34.6667 38.7429 34.68 38.7163 34.68C38.5296 34.68 38.2896 34.64 37.9963 34.56C37.7029 34.48 37.3696 34.36 36.9963 34.2C36.6496 34.0667 36.2896 33.9067 35.9163 33.72C35.5696 33.5333 35.2363 33.3333 34.9163 33.12ZM66.7656 21.72C66.339 21.7467 65.819 22.0267 65.2056 22.56C64.5923 23.0667 63.9256 23.7333 63.2056 24.56C62.5123 25.36 61.779 26.2533 61.0056 27.24C60.259 28.2267 59.5256 29.2133 58.8056 30.2C58.1123 31.16 57.459 32.0667 56.8456 32.92C56.2323 33.7733 55.7123 34.4533 55.2856 34.96C54.699 34.72 54.1923 34.3733 53.7656 33.92C53.339 33.44 53.0323 32.8533 52.8456 32.16C52.979 31.3333 53.1656 30.48 53.4056 29.6C53.6456 28.6933 53.9523 27.76 54.3256 26.8C54.7256 25.84 55.2056 24.84 55.7656 23.8C56.3523 22.7333 57.059 21.6133 57.8856 20.44C57.4856 20.4667 56.939 20.76 56.2456 21.32C55.5523 21.8533 54.8056 22.56 54.0056 23.44C53.2056 24.2933 52.379 25.2667 51.5256 26.36C50.6723 27.4267 49.8723 28.48 49.1256 29.52C48.139 30.9067 47.3123 32.12 46.6456 33.16C46.0056 34.2 45.539 34.8133 45.2456 35C44.5523 34.4933 44.0723 33.9467 43.8056 33.36C43.539 32.7733 43.339 32.12 43.2056 31.4C43.2323 30.76 43.3256 29.96 43.4856 29C43.6723 28.04 43.9256 27.0533 44.2456 26.04C44.859 24.0933 45.6456 22.16 46.6056 20.24C47.5923 18.32 48.539 16.56 49.4456 14.96C50.1923 15.12 50.859 15.3733 51.4456 15.72C52.059 16.0667 52.699 16.5733 53.3656 17.24C53.099 18.0667 52.6856 18.9467 52.1256 19.88C51.5656 20.7867 50.979 21.7467 50.3656 22.76C49.7523 23.7733 49.1923 24.8133 48.6856 25.88C48.179 26.9467 47.8456 28.0267 47.6856 29.12C48.4323 28.0533 49.3123 26.8267 50.3256 25.44C51.3656 24.0533 52.419 22.7467 53.4856 21.52C54.579 20.2933 55.659 19.2533 56.7256 18.4C57.7923 17.5467 58.7523 17.12 59.6056 17.12C59.9256 17.12 60.2723 17.1733 60.6456 17.28C61.019 17.3867 61.3656 17.52 61.6856 17.68C62.0056 17.84 62.2723 18 62.4856 18.16C62.699 18.2933 62.819 18.4 62.8456 18.48C62.7123 19.0133 62.3923 19.7467 61.8856 20.68C61.4056 21.5867 60.8856 22.5467 60.3256 23.56C59.7656 24.5733 59.2456 25.56 58.7656 26.52C58.2856 27.4533 58.0056 28.2 57.9256 28.76C59.2323 26.9733 60.459 25.36 61.6056 23.92C62.7523 22.4533 63.8323 21.2 64.8456 20.16C65.859 19.12 66.7923 18.32 67.6456 17.76C68.5256 17.2 69.3523 16.92 70.1256 16.92C70.659 16.92 71.1523 17.0667 71.6056 17.36C72.0856 17.6267 72.419 18.0267 72.6056 18.56C72.3656 19.36 71.9656 20.32 71.4056 21.44C70.8723 22.56 70.3256 23.7467 69.7656 25C69.2056 26.2267 68.699 27.44 68.2456 28.64C67.819 29.84 67.6056 30.92 67.6056 31.88C67.6056 32.44 67.6856 32.8133 67.8456 33C68.0056 33.16 68.2323 33.24 68.5256 33.24C68.8456 33.24 69.139 33.1867 69.4056 33.08C69.699 32.9467 69.9123 32.88 70.0456 32.88C70.2056 32.9867 70.299 33.12 70.3256 33.28C70.3523 33.44 70.3656 33.5867 70.3656 33.72C69.8323 34.1467 69.2856 34.4933 68.7256 34.76C68.1656 35.0533 67.539 35.2 66.8456 35.2C66.2056 35.2 65.6723 35.0933 65.2456 34.88C64.8456 34.6667 64.5123 34.3733 64.2456 34C63.979 33.6267 63.7923 33.2 63.6856 32.72C63.579 32.24 63.5256 31.72 63.5256 31.16C63.5256 30.2533 63.6456 29.36 63.8856 28.48C64.1256 27.5733 64.4056 26.72 64.7256 25.92C65.0723 25.0933 65.4323 24.3333 65.8056 23.64C66.179 22.92 66.499 22.28 66.7656 21.72ZM71.3116 47.24C70.9382 47.1333 70.7249 46.7333 70.6716 46.04C70.5649 45.6933 70.4849 45.28 70.4316 44.8C70.4049 44.32 70.3916 43.7733 70.3916 43.16C70.3916 42.6 70.4849 41.8267 70.6716 40.84C70.8582 39.88 71.1116 38.7867 71.4316 37.56C71.7782 36.3333 72.1916 35.0133 72.6716 33.6C73.1516 32.16 73.6849 30.7067 74.2716 29.24C74.9916 27.4 75.6182 25.8133 76.1516 24.48C76.6849 23.12 77.1249 21.9467 77.4716 20.96C77.8449 19.9733 78.1382 19.16 78.3516 18.52C78.5916 17.88 78.7782 17.3333 78.9116 16.88C79.0182 16.56 79.1782 16.1733 79.3916 15.72C79.6049 15.2667 79.8449 14.8133 80.1116 14.36C80.4049 13.88 80.6982 13.44 80.9916 13.04C81.2849 12.6133 81.5516 12.2933 81.7916 12.08C82.7249 12.2133 83.6049 12.4533 84.4316 12.8C85.2582 13.1467 85.7649 13.48 85.9516 13.8C85.5782 14.1467 85.1516 14.6933 84.6716 15.44C84.1916 16.16 83.7249 16.96 83.2716 17.84C82.8182 18.6933 82.4049 19.5733 82.0316 20.48C81.6582 21.3867 81.3782 22.1867 81.1916 22.88C81.4582 22.4267 81.8049 21.9333 82.2316 21.4C82.6582 20.8667 83.3116 20.1333 84.1916 19.2C85.1782 18.1867 86.0982 17.4133 86.9516 16.88C87.8316 16.32 88.5916 16.04 89.2316 16.04C90.2449 16.04 91.0716 16.32 91.7116 16.88C92.3782 17.44 92.7116 18.16 92.7116 19.04C92.7116 20.96 92.3916 22.8667 91.7516 24.76C91.1116 26.6267 90.1916 28.32 88.9916 29.84C88.5382 30.4267 88.0049 30.9867 87.3916 31.52C86.7782 32.0533 86.1382 32.5333 85.4716 32.96C84.8049 33.36 84.1516 33.68 83.5116 33.92C82.8716 34.16 82.2982 34.28 81.7916 34.28C81.3116 34.28 80.8849 34.1867 80.5116 34C80.1649 33.7867 79.9249 33.5333 79.7916 33.24C80.8316 32.6267 81.8449 31.7733 82.8316 30.68C83.8182 29.5867 84.7249 28.3333 85.5516 26.92C86.4049 25.48 87.1382 23.9333 87.7516 22.28C88.3916 20.6267 88.8716 18.9467 89.1916 17.24C88.1782 17.7733 87.2582 18.36 86.4316 19C85.6316 19.6133 84.8316 20.4267 84.0316 21.44C83.0716 22.6133 82.3116 23.56 81.7516 24.28C81.1916 25 80.7249 25.6133 80.3516 26.12C80.0049 26.6267 79.7116 27.1067 79.4716 27.56C79.2582 27.9867 79.0182 28.52 78.7516 29.16C78.3782 30.0133 77.9382 31.1467 77.4316 32.56C76.9516 33.9467 76.4449 35.5067 75.9116 37.24C75.4049 38.9733 74.8849 40.8133 74.3516 42.76C73.8449 44.7333 73.3516 46.6933 72.8716 48.64C72.5782 48.5867 72.3249 48.3733 72.1116 48C71.8982 47.76 71.7382 47.5867 71.6316 47.48C71.5516 47.3733 71.4449 47.2933 71.3116 47.24ZM94.2334 30.24C94.2334 29.28 94.4734 27.9467 94.9534 26.24C95.4601 24.5333 96.1134 22.6667 96.9134 20.64C97.7134 18.6133 98.6201 16.52 99.6334 14.36C100.647 12.2 101.66 10.1867 102.673 8.32C103.713 6.45333 104.7 4.84 105.633 3.48C106.593 2.12 107.407 1.2 108.073 0.719999C108.447 0.746666 108.847 0.906665 109.273 1.2C109.727 1.49333 110.14 1.85333 110.513 2.28C110.887 2.68 111.193 3.10666 111.433 3.56C111.7 4.01333 111.833 4.42667 111.833 4.8C110.633 5.76 109.407 7 108.153 8.52C106.927 10.0133 105.753 11.6667 104.633 13.48C103.513 15.2667 102.473 17.1733 101.513 19.2C100.58 21.2 99.7934 23.1733 99.1534 25.12C100.007 23.6533 100.9 22.32 101.833 21.12C102.767 19.92 103.7 18.8933 104.633 18.04C105.567 17.1867 106.473 16.5333 107.353 16.08C108.26 15.6 109.113 15.3467 109.913 15.32C111.087 16.1733 111.673 17.3067 111.673 18.72C111.673 19.5733 111.5 20.44 111.153 21.32C110.807 22.1733 110.34 22.9733 109.753 23.72C109.193 24.44 108.54 25.0667 107.793 25.6C107.073 26.1067 106.313 26.44 105.513 26.6C105.78 27.5333 106.113 28.48 106.513 29.44C106.94 30.4 107.433 31.3333 107.993 32.24C108.58 33.1467 109.233 33.9867 109.953 34.76C110.7 35.5333 111.54 36.1867 112.473 36.72C112.34 36.9867 112.14 37.2533 111.873 37.52C111.607 37.7867 111.287 38.0133 110.913 38.2C110.54 38.4133 110.127 38.5733 109.673 38.68C109.247 38.8133 108.82 38.88 108.393 38.88C107.673 38.88 106.993 38.52 106.353 37.8C105.74 37.08 105.18 36.04 104.673 34.68C104.273 33.5867 103.887 32.28 103.513 30.76C103.14 29.24 102.807 27.6533 102.513 26C102.887 25.76 103.353 25.4133 103.913 24.96C104.473 24.48 105.06 23.9333 105.673 23.32C108.02 21.0533 109.193 19.0933 109.193 17.44C109.193 17.2267 109.047 17.12 108.753 17.12C108.22 17.1467 107.593 17.4 106.873 17.88C106.153 18.36 105.38 19.0267 104.553 19.88C103.753 20.7333 102.927 21.7333 102.073 22.88C101.247 24.0267 100.447 25.2667 99.6734 26.6C99.3534 27.1333 99.0601 27.7467 98.7934 28.44C98.5268 29.1333 98.2868 29.8533 98.0734 30.6C97.8868 31.32 97.7401 32.04 97.6334 32.76C97.5268 33.48 97.4734 34.1467 97.4734 34.76C97.4734 35.1333 97.5134 35.44 97.5934 35.68C96.7668 35.6 96.2601 35.3867 96.0734 35.04C95.8601 34.72 95.6734 34.4533 95.5134 34.24C95.3801 34.0533 95.2334 33.8933 95.0734 33.76C94.8334 33.5733 94.6334 33.1733 94.4734 32.56C94.3134 31.9467 94.2334 31.1733 94.2334 30.24ZM114.076 31.32C114.076 31.08 114.09 30.7867 114.116 30.44C114.17 30.0667 114.25 29.5867 114.356 29C114.463 28.3867 114.596 27.6533 114.756 26.8C114.943 25.9467 115.17 24.92 115.436 23.72C115.49 23.4533 115.61 23.0267 115.796 22.44C115.983 21.8533 116.223 21.24 116.516 20.6C116.836 19.9333 117.21 19.2933 117.636 18.68C118.09 18.0667 118.623 17.6133 119.236 17.32C119.69 17.4267 120.29 17.7067 121.036 18.16C121.783 18.5867 122.423 19.1867 122.956 19.96C122.343 20.6533 121.823 21.3467 121.396 22.04C120.996 22.7333 120.623 23.4533 120.276 24.2C119.956 24.9467 119.65 25.72 119.356 26.52C119.09 27.32 118.783 28.16 118.436 29.04C118.143 29.7867 117.876 30.56 117.636 31.36C117.396 32.1333 117.263 32.8133 117.236 33.4C117.236 33.88 117.223 34.2133 117.196 34.4C117.196 34.6133 117.13 34.72 116.996 34.72C116.89 34.72 116.676 34.6533 116.356 34.52C116.036 34.3867 115.703 34.1867 115.356 33.92C115.036 33.6267 114.743 33.2667 114.476 32.84C114.21 32.4133 114.076 31.9067 114.076 31.32ZM121.716 13.96C121.716 13.8 121.756 13.56 121.836 13.24C121.703 13.1067 121.583 12.9067 121.476 12.64C121.396 12.3733 121.356 12.1333 121.356 11.92C121.356 11.68 121.383 11.36 121.436 10.96C121.516 10.5333 121.61 10.08 121.716 9.6C121.823 9.12 121.956 8.62667 122.116 8.12C122.276 7.58666 122.436 7.10666 122.596 6.68C122.916 6.68 123.303 6.77333 123.756 6.96C124.236 7.12 124.716 7.34667 125.196 7.64C125.676 7.90666 126.116 8.21333 126.516 8.56C126.916 8.88 127.223 9.18667 127.436 9.48C127.143 9.77333 126.756 10.1867 126.276 10.72C125.796 11.2267 125.33 11.7733 124.876 12.36C124.423 12.92 124.01 13.4533 123.636 13.96C123.263 14.4667 123.023 14.8267 122.916 15.04C122.596 14.9867 122.316 14.8533 122.076 14.64C121.836 14.4 121.716 14.1733 121.716 13.96ZM129.969 14.6C130.663 14.8133 131.316 15.2933 131.929 16.04C132.543 16.76 132.996 17.56 133.289 18.44C132.996 19.16 132.543 20.0267 131.929 21.04C131.316 22.0533 130.703 23.0933 130.089 24.16C129.476 25.2 128.916 26.2 128.409 27.16C127.929 28.0933 127.649 28.8667 127.569 29.48C127.996 29.0267 128.463 28.5067 128.969 27.92C129.503 27.3067 130.009 26.7067 130.489 26.12C130.996 25.5067 131.463 24.96 131.889 24.48C132.316 23.9733 132.649 23.6 132.889 23.36C133.396 22.8267 133.996 22.2133 134.689 21.52C135.383 20.8 136.103 20.1333 136.849 19.52C137.623 18.88 138.396 18.3467 139.169 17.92C139.943 17.4667 140.649 17.24 141.289 17.24C141.983 17.24 142.556 17.48 143.009 17.96C143.489 18.4133 143.863 18.8933 144.129 19.4C144.129 19.4533 144.023 19.5333 143.809 19.64C143.623 19.72 143.343 19.9733 142.969 20.4C142.596 20.88 142.169 21.5467 141.689 22.4C141.236 23.2267 140.783 24.1333 140.329 25.12C139.903 26.08 139.543 27.0667 139.249 28.08C138.956 29.0933 138.809 30.0133 138.809 30.84C138.809 31.5067 138.889 31.9333 139.049 32.12C139.236 32.3067 139.489 32.4 139.809 32.4C140.103 32.4 140.409 32.3333 140.729 32.2C141.049 32.0667 141.303 32 141.489 32C141.596 32.0533 141.676 32.1733 141.729 32.36C141.809 32.52 141.849 32.6667 141.849 32.8C141.636 32.9867 141.383 33.1733 141.089 33.36C140.796 33.5467 140.489 33.72 140.169 33.88C139.849 34.04 139.529 34.1733 139.209 34.28C138.916 34.3867 138.649 34.44 138.409 34.44C137.636 34.44 136.996 34.32 136.489 34.08C136.009 33.8667 135.623 33.5733 135.329 33.2C135.063 32.8267 134.876 32.3867 134.769 31.88C134.663 31.3467 134.609 30.7867 134.609 30.2C134.609 29.88 134.636 29.52 134.689 29.12C134.743 28.72 134.849 28.2533 135.009 27.72C135.169 27.16 135.396 26.5067 135.689 25.76C135.983 24.9867 136.356 24.0667 136.809 23C136.756 23 136.396 23.1867 135.729 23.56C135.063 23.9333 134.343 24.5067 133.569 25.28C132.316 26.48 131.183 27.6667 130.169 28.84C129.183 30.0133 128.169 31.32 127.129 32.76C126.543 33.5867 126.023 34.28 125.569 34.84C125.143 35.4267 124.769 35.8133 124.449 36C123.889 35.68 123.476 35.2267 123.209 34.64C122.943 34.08 122.743 33.4933 122.609 32.88C122.609 32.3733 122.676 31.7333 122.809 30.96C122.969 30.1867 123.169 29.3333 123.409 28.4C123.676 27.44 123.996 26.44 124.369 25.4C124.743 24.36 125.156 23.32 125.609 22.28C126.623 19.9333 127.543 18.0933 128.369 16.76C129.223 15.4267 129.756 14.7067 129.969 14.6Z" fill="#F3F3F3"/>
</svg>
